<mxfile host="app.diagrams.net" modified="2020-09-30T23:41:01.139Z" agent="5.0 (Windows NT 10.0; Win64; x64) AppleWebKit/537.36 (KHTML, like Gecko) Chrome/85.0.4183.121 Safari/537.36" etag="SG0FceMYS14ywKm4SCrb" version="13.6.5" type="github">
  <diagram id="_3ExLBju8wWPZAtR7ZiH" name="Page-1">
    <mxGraphModel dx="1298" dy="1005" grid="1" gridSize="10" guides="1" tooltips="1" connect="1" arrows="1" fold="1" page="1" pageScale="1" pageWidth="850" pageHeight="1100" math="0" shadow="0">
      <root>
        <mxCell id="0" />
        <mxCell id="1" parent="0" />
        <mxCell id="O6tpJL-ifdws2r6rpKGP-1" value="&#xa;&lt;span id=&quot;CidrBlock&quot; class=&quot;&quot;&gt;10.1.50.0/24&lt;/span&gt;&#xa;&#xa;" style="whiteSpace=wrap;html=1;aspect=fixed;" vertex="1" parent="1">
          <mxGeometry x="470" y="130" width="210" height="210" as="geometry" />
        </mxCell>
        <mxCell id="O6tpJL-ifdws2r6rpKGP-2" value="&#xa;&lt;span id=&quot;CidrBlock&quot; class=&quot;&quot;&gt;10.1.60.0/24&lt;/span&gt;&#xa;&#xa;" style="whiteSpace=wrap;html=1;aspect=fixed;" vertex="1" parent="1">
          <mxGeometry x="470" y="340" width="210" height="210" as="geometry" />
        </mxCell>
        <mxCell id="O6tpJL-ifdws2r6rpKGP-3" value="&lt;br&gt;&lt;span id=&quot;CidrBlock&quot; class=&quot;&quot;&gt;10.1.70.0/24&lt;/span&gt;&lt;br&gt;" style="whiteSpace=wrap;html=1;aspect=fixed;" vertex="1" parent="1">
          <mxGeometry x="470" y="550" width="210" height="210" as="geometry" />
        </mxCell>
        <mxCell id="O6tpJL-ifdws2r6rpKGP-4" value="&#xa;&lt;span id=&quot;CidrBlock&quot; class=&quot;&quot;&gt;10.1.10.0/24&lt;/span&gt;&#xa;&#xa;" style="whiteSpace=wrap;html=1;aspect=fixed;" vertex="1" parent="1">
          <mxGeometry x="260" y="130" width="210" height="210" as="geometry" />
        </mxCell>
        <mxCell id="O6tpJL-ifdws2r6rpKGP-5" value="&#xa;&lt;span id=&quot;CidrBlock&quot; class=&quot;&quot;&gt;10.1.20.0/24&lt;/span&gt;&#xa;&#xa;" style="whiteSpace=wrap;html=1;aspect=fixed;" vertex="1" parent="1">
          <mxGeometry x="260" y="340" width="210" height="210" as="geometry" />
        </mxCell>
        <mxCell id="O6tpJL-ifdws2r6rpKGP-6" value="&#xa;&lt;span id=&quot;CidrBlock&quot; class=&quot;&quot;&gt;10.1.30.0/24&lt;/span&gt;&#xa;&#xa;" style="whiteSpace=wrap;html=1;aspect=fixed;" vertex="1" parent="1">
          <mxGeometry x="260" y="550" width="210" height="210" as="geometry" />
        </mxCell>
        <mxCell id="O6tpJL-ifdws2r6rpKGP-7" value="Private Subnet A" style="text;html=1;resizable=0;autosize=1;align=center;verticalAlign=middle;points=[];fillColor=none;strokeColor=none;rounded=0;" vertex="1" parent="1">
          <mxGeometry x="525" y="190" width="100" height="20" as="geometry" />
        </mxCell>
        <mxCell id="O6tpJL-ifdws2r6rpKGP-8" value="Private Subnet B" style="text;html=1;resizable=0;autosize=1;align=center;verticalAlign=middle;points=[];fillColor=none;strokeColor=none;rounded=0;" vertex="1" parent="1">
          <mxGeometry x="520" y="400" width="110" height="20" as="geometry" />
        </mxCell>
        <mxCell id="O6tpJL-ifdws2r6rpKGP-9" value="Private Subnet C" style="text;html=1;resizable=0;autosize=1;align=center;verticalAlign=middle;points=[];fillColor=none;strokeColor=none;rounded=0;" vertex="1" parent="1">
          <mxGeometry x="515" y="600" width="110" height="20" as="geometry" />
        </mxCell>
        <mxCell id="O6tpJL-ifdws2r6rpKGP-11" value="Public Subnet A" style="text;html=1;resizable=0;autosize=1;align=center;verticalAlign=middle;points=[];fillColor=none;strokeColor=none;rounded=0;" vertex="1" parent="1">
          <mxGeometry x="315" y="190" width="100" height="20" as="geometry" />
        </mxCell>
        <mxCell id="O6tpJL-ifdws2r6rpKGP-12" value="Public Subnet B" style="text;html=1;resizable=0;autosize=1;align=center;verticalAlign=middle;points=[];fillColor=none;strokeColor=none;rounded=0;" vertex="1" parent="1">
          <mxGeometry x="315" y="400" width="100" height="20" as="geometry" />
        </mxCell>
        <mxCell id="O6tpJL-ifdws2r6rpKGP-13" value="Public Subnet C" style="text;html=1;resizable=0;autosize=1;align=center;verticalAlign=middle;points=[];fillColor=none;strokeColor=none;rounded=0;" vertex="1" parent="1">
          <mxGeometry x="315" y="600" width="100" height="20" as="geometry" />
        </mxCell>
        <mxCell id="O6tpJL-ifdws2r6rpKGP-14" value="rdp-bastian&lt;br&gt;&lt;span style=&quot;clip: rect(0px , 0px , 0px , 0px) ; font: &amp;#34;unset&amp;#34; ; top: 0px&quot;&gt;54.198.115.44&lt;br&gt;&lt;span style=&quot;clip: rect(0px , 0px , 0px , 0px) ; font: &amp;#34;unset&amp;#34; ; top: 0px&quot;&gt;10.1.10.59&lt;/span&gt;&lt;span style=&quot;clip: rect(0px , 0px , 0px , 0px) ; font: &amp;#34;unset&amp;#34; ; top: 0px&quot;&gt;&lt;br&gt;&lt;/span&gt;&lt;/span&gt;" style="whiteSpace=wrap;html=1;aspect=fixed;" vertex="1" parent="1">
          <mxGeometry x="325" y="250" width="80" height="80" as="geometry" />
        </mxCell>
        <mxCell id="O6tpJL-ifdws2r6rpKGP-15" value="&lt;span&gt;&lt;span&gt;&lt;span&gt;10.1.0.0/16&lt;/span&gt;&lt;/span&gt;&lt;/span&gt;" style="text;whiteSpace=wrap;html=1;" vertex="1" parent="1">
          <mxGeometry x="430" y="90" width="90" height="30" as="geometry" />
        </mxCell>
        <mxCell id="O6tpJL-ifdws2r6rpKGP-16" value="VPC" style="text;html=1;resizable=0;autosize=1;align=center;verticalAlign=middle;points=[];fillColor=none;strokeColor=none;rounded=0;" vertex="1" parent="1">
          <mxGeometry x="440" y="70" width="40" height="20" as="geometry" />
        </mxCell>
        <mxCell id="O6tpJL-ifdws2r6rpKGP-17" value="dc1&lt;br&gt;10.1.50.124" style="whiteSpace=wrap;html=1;aspect=fixed;" vertex="1" parent="1">
          <mxGeometry x="530" y="250" width="80" height="80" as="geometry" />
        </mxCell>
        <mxCell id="O6tpJL-ifdws2r6rpKGP-18" value="dc2&lt;br&gt;10.1.60.253" style="whiteSpace=wrap;html=1;aspect=fixed;" vertex="1" parent="1">
          <mxGeometry x="535" y="460" width="80" height="80" as="geometry" />
        </mxCell>
      </root>
    </mxGraphModel>
  </diagram>
</mxfile>
